<?xml version="1.0" encoding="UTF-8" standalone="no"?>
<!DOCTYPE svg PUBLIC "-//W3C//DTD SVG 1.1//EN" "http://www.w3.org/Graphics/SVG/1.1/DTD/svg11.dtd">
<svg version="1.1" xmlns="http://www.w3.org/2000/svg" xmlns:xlink="http://www.w3.org/1999/xlink" preserveAspectRatio="xMidYMid meet" viewBox="0 0 30 30" width="30" height="30"><defs><path d="M12.2 29.29C12.2 29.53 12.39 29.73 12.63 29.73C13.13 29.73 17.15 29.73 17.66 29.73C17.91 29.73 18.09 29.53 18.09 29.29C18.09 28.48 18.09 24.43 18.09 17.14C20.14 17.14 21.27 17.14 21.51 17.14C21.73 17.14 21.92 16.96 21.94 16.75C21.99 16.3 22.4 12.71 22.46 12.25C22.47 12.13 22.44 12.01 22.35 11.91C22.27 11.82 22.15 11.77 22.03 11.77C21.76 11.77 20.45 11.77 18.09 11.77C18.09 10.07 18.09 9.14 18.09 8.95C18.09 8.1 18.56 7.67 19.46 7.67C19.59 7.67 22.03 7.67 22.03 7.67C22.26 7.67 22.46 7.48 22.46 7.24C22.46 6.83 22.46 3.52 22.46 3.1C22.46 2.87 22.26 2.67 22.03 2.67C21.67 2.67 18.84 2.67 18.48 2.67C18.46 2.67 18.4 2.67 18.33 2.67C17.71 2.67 15.58 2.79 13.88 4.34C12.02 6.06 12.28 8.11 12.34 8.48C12.34 8.69 12.34 9.79 12.34 11.77C10.47 11.77 9.44 11.77 9.23 11.77C8.99 11.77 8.8 11.97 8.8 12.2C8.8 12.64 8.8 16.2 8.8 16.64C8.8 16.89 8.99 17.08 9.23 17.08C9.63 17.08 10.61 17.08 12.2 17.08C12.2 24.4 12.2 28.48 12.2 29.29Z" id="c393S8ZvFJ"></path></defs><g><g><g><use xlink:href="#c393S8ZvFJ" opacity="1" fill="#e9e9e9" fill-opacity="1"></use><g><use xlink:href="#c393S8ZvFJ" opacity="1" fill-opacity="0" stroke="#e9e9e9" stroke-width="1" stroke-opacity="0"></use></g></g></g></g></svg>