<?xml version="1.0" encoding="UTF-8" standalone="no"?>
<!DOCTYPE svg PUBLIC "-//W3C//DTD SVG 1.1//EN" "http://www.w3.org/Graphics/SVG/1.1/DTD/svg11.dtd">
<svg version="1.1" xmlns="http://www.w3.org/2000/svg" xmlns:xlink="http://www.w3.org/1999/xlink" preserveAspectRatio="xMidYMid meet" viewBox="0 0 25 25" width="30" height="30"><defs><path d="M20.06 2.71L20.17 2.73L20.18 2.81L20.18 2.89L20.19 2.98L20.2 3.07L20.21 3.17L20.22 3.27L20.23 3.38L20.24 3.5L20.25 3.62L20.25 3.74L20.26 3.86L20.27 3.99L20.28 4.12L20.28 4.26L20.29 4.39L20.29 4.53L20.3 4.67L20.3 4.82L20.3 4.96L20.31 5.1L20.31 5.25L20.31 5.39L20.31 5.54L20.31 5.68L20.3 5.83L20.3 5.97L20.3 6.11L20.29 6.25L20.42 6.38L20.54 6.52L20.66 6.65L20.77 6.79L20.89 6.93L20.99 7.07L21.09 7.22L21.19 7.36L21.28 7.51L21.37 7.66L21.45 7.81L21.53 7.97L21.61 8.12L21.67 8.28L21.74 8.44L21.8 8.61L21.85 8.77L21.9 8.93L21.94 9.1L21.97 9.27L22.01 9.44L22.03 9.62L22.05 9.79L22.07 9.97L22.07 10.14L22.08 10.32L22.07 10.51L22.06 10.69L22.04 11.01L22 11.32L21.95 11.63L21.89 11.93L21.81 12.22L21.72 12.51L21.61 12.79L21.49 13.06L21.35 13.32L21.2 13.58L21.03 13.82L20.85 14.06L20.66 14.29L20.44 14.5L20.22 14.71L19.97 14.91L19.72 15.09L19.44 15.27L19.16 15.43L18.85 15.58L18.53 15.72L18.2 15.84L17.84 15.96L17.48 16.06L17.09 16.14L16.69 16.22L16.27 16.28L15.84 16.32L15.95 16.4L16.05 16.48L16.14 16.56L16.23 16.64L16.31 16.73L16.38 16.81L16.45 16.9L16.51 16.99L16.57 17.08L16.62 17.17L16.66 17.26L16.71 17.35L16.74 17.44L16.78 17.53L16.81 17.62L16.83 17.71L16.85 17.79L16.87 17.88L16.89 17.96L16.9 18.04L16.97 18.91L16.97 19L16.98 19.1L16.98 19.2L16.99 19.3L16.99 19.41L17 19.52L17.01 19.63L17.01 19.75L17.02 19.86L17.03 19.98L17.04 20.1L17.04 20.23L17.05 20.35L17.06 20.48L17.07 20.6L17.08 20.73L17.09 20.86L17.09 20.86L17.07 20.86L17.33 24.37L17.15 24.43L15.85 24.74L14.52 24.93L13.14 25L11.77 24.93L10.43 24.74L10.11 24.66L10.11 20.84L10.1 20.84L10.1 20.8L10.1 20.68L10.1 20.57L10.11 20.45L10.11 20.34L10.11 20.22L10.11 20.12L10.11 20.01L10.11 19.92L10.11 19.82L10.12 19.73L10.12 19.65L10.12 19.57L10.12 19.5L10.12 19.44L10.12 19.38L10.12 19.33L10.12 19.29L10.12 19.26L10.12 19.24L10.11 19.24L10.07 19.25L10.02 19.26L9.96 19.27L9.87 19.29L9.78 19.31L9.67 19.32L9.54 19.34L9.41 19.36L9.26 19.37L9.11 19.38L8.95 19.39L8.78 19.39L8.6 19.38L8.43 19.37L8.24 19.35L8.06 19.32L7.88 19.28L7.69 19.23L7.51 19.16L7.33 19.09L7.15 19L6.98 18.89L6.82 18.77L6.66 18.63L6.51 18.48L6.37 18.3L6.24 18.11L6.22 18.07L6.2 18.03L6.17 17.98L6.15 17.93L6.12 17.87L6.1 17.81L6.07 17.75L6.04 17.68L6.01 17.61L5.98 17.53L5.94 17.46L5.91 17.38L5.87 17.3L5.82 17.22L5.78 17.13L5.73 17.05L5.69 16.96L5.63 16.88L5.58 16.8L5.52 16.71L5.46 16.63L5.4 16.55L5.33 16.47L5.26 16.39L5.19 16.31L5.11 16.24L5.03 16.17L4.94 16.11L4.94 16.1L4.93 16.1L4.92 16.09L4.88 16.07L4.86 16.06L4.83 16.04L4.81 16.02L4.78 16.01L4.75 15.99L4.71 15.97L4.68 15.95L4.65 15.92L4.61 15.9L4.58 15.87L4.54 15.85L4.51 15.82L4.48 15.79L4.45 15.77L4.42 15.74L4.39 15.71L4.36 15.68L4.34 15.65L4.32 15.62L4.3 15.59L4.28 15.55L4.27 15.52L4.26 15.49L4.26 15.49L4.26 15.48L4.26 15.48L4.26 15.47L4.26 15.47L4.27 15.46L4.27 15.45L4.27 15.45L4.27 15.44L4.27 15.44L4.28 15.43L4.28 15.42L4.28 15.42L4.29 15.41L4.29 15.4L4.29 15.4L4.3 15.39L4.3 15.39L4.31 15.38L4.31 15.38L4.32 15.37L4.32 15.37L4.33 15.36L4.34 15.36L4.34 15.35L4.35 15.35L4.35 15.35L4.36 15.34L4.37 15.34L4.39 15.33L4.41 15.33L4.44 15.32L4.48 15.31L4.52 15.3L4.57 15.29L4.62 15.28L4.68 15.28L4.74 15.28L4.81 15.28L4.88 15.28L4.96 15.29L5.04 15.3L5.13 15.32L5.22 15.34L5.31 15.37L5.41 15.41L5.51 15.45L5.61 15.5L5.71 15.56L5.82 15.63L5.93 15.71L6.04 15.81L6.15 15.91L6.27 16.02L6.38 16.15L6.5 16.29L6.54 16.34L6.58 16.4L6.62 16.47L6.67 16.55L6.72 16.63L6.78 16.71L6.85 16.8L6.92 16.89L7 16.99L7.08 17.08L7.17 17.17L7.27 17.26L7.37 17.34L7.49 17.42L7.61 17.49L7.74 17.56L7.89 17.62L8.04 17.67L8.2 17.71L8.37 17.73L8.56 17.75L8.75 17.75L8.96 17.74L9.18 17.71L9.41 17.66L9.66 17.59L9.91 17.51L10.19 17.41L10.2 17.37L10.2 17.34L10.21 17.31L10.22 17.27L10.23 17.23L10.25 17.19L10.26 17.15L10.28 17.11L10.3 17.06L10.32 17.02L10.34 16.97L10.36 16.93L10.39 16.88L10.42 16.84L10.46 16.79L10.49 16.75L10.53 16.71L10.57 16.67L10.62 16.62L10.67 16.58L10.72 16.55L10.78 16.51L10.84 16.48L10.91 16.45L10.98 16.42L11.06 16.39L11.14 16.37L11.23 16.35L10.82 16.29L10.42 16.23L10.03 16.15L9.65 16.07L9.29 15.97L8.93 15.86L8.59 15.74L8.26 15.61L7.95 15.47L7.64 15.32L7.35 15.16L7.07 14.98L6.8 14.79L6.54 14.6L6.3 14.39L6.07 14.17L5.85 13.94L5.64 13.69L5.45 13.44L5.27 13.17L5.11 12.89L4.95 12.6L4.81 12.3L4.69 11.99L4.58 11.66L4.48 11.32L4.39 10.97L4.32 10.61L4.29 10.37L4.27 10.13L4.26 9.9L4.26 9.68L4.27 9.47L4.3 9.27L4.33 9.07L4.38 8.88L4.43 8.7L4.49 8.53L4.56 8.36L4.64 8.2L4.72 8.04L4.81 7.89L4.9 7.75L5 7.61L5.1 7.47L5.21 7.34L5.31 7.22L5.43 7.1L5.54 6.98L5.65 6.87L5.77 6.76L5.88 6.65L5.99 6.55L6.1 6.44L6.21 6.34L6.32 6.25L6.31 6.22L6.29 6.18L6.26 6.14L6.24 6.08L6.22 6.01L6.19 5.94L6.17 5.86L6.15 5.76L6.12 5.66L6.1 5.56L6.08 5.44L6.07 5.32L6.05 5.19L6.04 5.06L6.03 4.92L6.03 4.77L6.03 4.62L6.03 4.46L6.04 4.3L6.06 4.14L6.08 3.97L6.11 3.8L6.15 3.63L6.19 3.45L6.24 3.27L6.3 3.09L6.37 2.91L6.45 2.73L6.54 2.71L6.64 2.7L6.74 2.7L6.85 2.7L6.96 2.71L7.07 2.72L7.19 2.74L7.31 2.76L7.44 2.79L7.57 2.82L7.7 2.86L7.84 2.9L7.97 2.95L8.11 3L8.25 3.05L8.4 3.11L8.54 3.17L8.69 3.24L8.84 3.31L8.98 3.38L9.13 3.46L9.28 3.54L9.43 3.63L9.58 3.71L9.72 3.81L9.87 3.9L10.02 4L10.16 4.1L10.37 4.03L10.59 3.97L10.81 3.91L11.04 3.86L11.28 3.82L11.52 3.78L11.77 3.74L12.02 3.72L12.27 3.7L12.53 3.68L12.78 3.67L13.04 3.66L13.29 3.66L13.55 3.66L13.8 3.67L14.05 3.68L14.29 3.69L14.53 3.71L14.76 3.74L14.99 3.76L15.21 3.79L15.42 3.83L15.62 3.86L15.81 3.91L15.99 3.95L16.16 4L16.32 4.04L16.46 4.1L16.54 4.04L16.62 3.98L16.71 3.92L16.81 3.85L16.92 3.78L17.04 3.71L17.17 3.64L17.3 3.56L17.44 3.49L17.58 3.42L17.73 3.34L17.88 3.27L18.04 3.2L18.19 3.13L18.35 3.06L18.51 3L18.67 2.94L18.82 2.89L18.98 2.84L19.13 2.8L19.28 2.76L19.43 2.73L19.57 2.71L19.7 2.7L19.83 2.69L19.95 2.69L20.06 2.71Z" id="b6CoOakMP"></path></defs><g><g><g><use xlink:href="#b6CoOakMP" opacity="1" fill="#e9e9e9" fill-opacity="1"></use><g><use xlink:href="#b6CoOakMP" opacity="1" fill-opacity="0" stroke="#e9e9e9" stroke-width="1" stroke-opacity="0"></use></g></g></g></g></svg>