<?xml version="1.0" encoding="utf-8"?>
<!-- Generator: Adobe Illustrator 24.2.0, SVG Export Plug-In . SVG Version: 6.00 Build 0)  -->
<svg version="1.1" id="Capa_1" xmlns="http://www.w3.org/2000/svg" xmlns:xlink="http://www.w3.org/1999/xlink" x="0px" y="0px"
	 viewBox="0 0 26.4 26.4" style="enable-background:new 0 0 26.4 26.4;" xml:space="preserve">
<style type="text/css">
	.st0{fill:#464646;}
</style>
<g>
	<g id="c14_house">
		<path class="st0" d="M3.6,24.3c0,0,0,0.6,0.6,0.6c0.7,0,6.7,0,6.7,0l0-5.5c0,0-0.1-0.9,0.8-0.9h2.8c1,0,1,0.9,1,0.9l0,5.4
			c0,0,5.6,0,6.5,0c0.7,0,0.7-0.7,0.7-0.7V14.1l-9.2-8.2l-9.7,8.2C3.6,14.1,3.6,24.3,3.6,24.3z"/>
		<path class="st0" d="M0,13.3c0,0,0.8,1.5,2.6,0l10.8-9.1l10.1,9.1c2.1,1.5,2.9,0,2.9,0l-13-11.8L0,13.3z"/>
		<polygon class="st0" points="23.3,4.2 20.7,4.2 20.7,7.3 23.3,9.5 		"/>
	</g>
	<g id="Capa_1_216_">
	</g>
</g>
</svg>
