<?xml version="1.0" encoding="UTF-8" standalone="no"?>
<!DOCTYPE svg PUBLIC "-//W3C//DTD SVG 1.1//EN" "http://www.w3.org/Graphics/SVG/1.1/DTD/svg11.dtd">
<svg version="1.1" xmlns="http://www.w3.org/2000/svg" xmlns:xlink="http://www.w3.org/1999/xlink" preserveAspectRatio="xMidYMid meet" viewBox="0 0 30 30" width="30" height="30"><defs><path d="M1.49 22.45C1.69 14.83 1.79 9.89 1.79 7.64C1.79 5.68 2.18 3.92 3.55 2.73C4.7 1.73 6.19 1.12 7.83 1.12C12.08 1.12 20.34 1.12 23.46 1.12C24.6 1.12 25.9 1.78 27.36 3.08C28.5 4.58 29.06 5.8 29.06 6.72C29.06 11.15 29.06 19.2 29.06 22.32C29.06 25.94 26.13 28.88 22.51 28.88C18.27 28.88 12.01 28.88 7.75 28.88C4.22 28.88 1.39 25.97 1.49 22.45C1.49 22.45 1.49 22.45 1.49 22.45Z" id="a6cHMMiNC"></path><path d="M21.15 15C21.15 18.39 18.39 21.15 15 21.15C11.61 21.15 8.85 18.39 8.85 15C8.85 11.61 11.61 8.85 15 8.85C18.39 8.85 21.15 11.61 21.15 15Z" id="d2K0VvljV6"></path><path d="M25.41 5.6C25.41 6.45 24.72 7.14 23.87 7.14C23.02 7.14 22.33 6.45 22.33 5.6C22.33 4.75 23.02 4.06 23.87 4.06C24.72 4.06 25.41 4.75 25.41 5.6Z" id="d30NNqInHZ"></path></defs><g><g><g><use xlink:href="#a6cHMMiNC" opacity="1" fill="#7e870f" fillOpacity="0"></use><g><use xlink:href="#a6cHMMiNC" opacity="1" fillOpacity="0" stroke="#e9e9e9" stroke-width="2" stroke-opacity="1"></use></g></g><g><use xlink:href="#d2K0VvljV6" opacity="1" fill="#4cb74b" fillOpacity="0"></use><g><use xlink:href="#d2K0VvljV6" opacity="1" fillOpacity="0" stroke="#e9e9e9" stroke-width="3" stroke-opacity="1"></use></g></g><g><use xlink:href="#d30NNqInHZ" opacity="1" fill="#e9e9e9" fillOpacity="1"></use></g></g></g></svg>