<?xml version="1.0" encoding="UTF-8" standalone="no"?>
<!DOCTYPE svg PUBLIC "-//W3C//DTD SVG 1.1//EN" "http://www.w3.org/Graphics/SVG/1.1/DTD/svg11.dtd">
<svg version="1.1" xmlns="http://www.w3.org/2000/svg" xmlns:xlink="http://www.w3.org/1999/xlink" preserveAspectRatio="xMidYMid meet" viewBox="0 0 30 30" width="30" height="30"><defs><path d="M2.44 12.19C2.44 13.89 2.44 27.53 2.44 29.24C2.44 29.47 2.62 29.66 2.87 29.66C3.39 29.66 7.63 29.66 8.17 29.66C8.4 29.66 8.59 29.47 8.59 29.24C8.59 27.53 8.59 13.89 8.59 12.19C8.59 11.96 8.4 11.76 8.17 11.76C7.11 11.76 3.39 11.76 2.87 11.76C2.62 11.76 2.44 11.96 2.44 12.19Z" id="e2P0DMX3Jq"></path><path d="M2.44 12.19C2.44 13.89 2.44 27.53 2.44 29.24C2.44 29.47 2.62 29.66 2.87 29.66C3.39 29.66 7.63 29.66 8.17 29.66C8.4 29.66 8.59 29.47 8.59 29.24C8.59 27.53 8.59 13.89 8.59 12.19C8.59 11.96 8.4 11.76 8.17 11.76C7.11 11.76 3.39 11.76 2.87 11.76C2.62 11.76 2.44 11.96 2.44 12.19Z" id="a1bCzRLNjc"></path><path d="M5.51 10.29C7.45 10.29 9.02 8.72 9.02 6.78C9.02 4.86 7.45 3.28 5.51 3.28C3.59 3.28 2.02 4.86 2.02 6.78C2.02 8.72 3.59 10.29 5.51 10.29Z" id="cQJshOaLf"></path><path d="M5.51 10.29C7.45 10.29 9.02 8.72 9.02 6.78C9.02 4.86 7.45 3.28 5.51 3.28C3.59 3.28 2.02 4.86 2.02 6.78C2.02 8.72 3.59 10.29 5.51 10.29Z" id="a3gE7WuOEb"></path><path d="M17.01 12.19C17.01 11.96 16.82 11.76 16.57 11.76C16.07 11.76 12.01 11.76 11.49 11.76C11.26 11.76 11.07 11.96 11.07 12.19C11.07 13.89 11.07 27.53 11.07 29.24C11.07 29.47 11.26 29.66 11.49 29.66C12.03 29.66 16.26 29.66 16.8 29.66C17.03 29.66 17.22 29.47 17.22 29.24C17.22 28.39 17.22 21.64 17.22 20.8C17.22 17.96 17.98 16.85 19.97 16.85C22.13 16.85 22.3 18.62 22.3 20.94C22.3 21.78 22.3 28.4 22.3 29.24C22.3 29.47 22.5 29.66 22.73 29.66C23.25 29.66 27.5 29.66 28.02 29.66C28.26 29.66 28.45 29.47 28.45 29.24C28.45 28.3 28.45 20.83 28.45 19.88C28.45 15.66 27.65 11.34 21.67 11.34C19.53 11.34 17.96 12.26 17.01 13.3C17.01 13.18 17.01 12.29 17.01 12.19Z" id="aHcFHLFvy"></path><path d="M17.01 12.19C17.01 11.96 16.82 11.76 16.57 11.76C16.07 11.76 12.01 11.76 11.49 11.76C11.26 11.76 11.07 11.96 11.07 12.19C11.07 13.89 11.07 27.53 11.07 29.24C11.07 29.47 11.26 29.66 11.49 29.66C12.03 29.66 16.26 29.66 16.8 29.66C17.03 29.66 17.22 29.47 17.22 29.24C17.22 28.39 17.22 21.64 17.22 20.8C17.22 17.96 17.98 16.85 19.97 16.85C22.13 16.85 22.3 18.62 22.3 20.94C22.3 21.78 22.3 28.4 22.3 29.24C22.3 29.47 22.5 29.66 22.73 29.66C23.25 29.66 27.5 29.66 28.02 29.66C28.26 29.66 28.45 29.47 28.45 29.24C28.45 28.3 28.45 20.83 28.45 19.88C28.45 15.66 27.65 11.34 21.67 11.34C19.53 11.34 17.96 12.26 17.01 13.3C17.01 13.18 17.01 12.29 17.01 12.19Z" id="cxi6Jo8Wz"></path></defs><g><g><g><use xlink:href="#e2P0DMX3Jq" opacity="1" fill="#e9e9e9" fillOpacity="1"></use><g><use xlink:href="#e2P0DMX3Jq" opacity="1" fillOpacity="0" stroke="#e9e9e9" stroke-width="1" stroke-opacity="0"></use></g></g><g><use xlink:href="#a1bCzRLNjc" opacity="1" fill="#e9e9e9" fillOpacity="0"></use><g><use xlink:href="#a1bCzRLNjc" opacity="1" fillOpacity="0" stroke="#e9e9e9" stroke-width="1" stroke-opacity="0"></use></g></g><g><use xlink:href="#cQJshOaLf" opacity="1" fill="#e9e9e9" fillOpacity="1"></use><g><use xlink:href="#cQJshOaLf" opacity="1" fillOpacity="0" stroke="#e9e9e9" stroke-width="1" stroke-opacity="0"></use></g></g><g><use xlink:href="#a3gE7WuOEb" opacity="1" fill="#e9e9e9" fillOpacity="0"></use><g><use xlink:href="#a3gE7WuOEb" opacity="1" fillOpacity="0" stroke="#e9e9e9" stroke-width="1" stroke-opacity="0"></use></g></g><g><use xlink:href="#aHcFHLFvy" opacity="1" fill="#e9e9e9" fillOpacity="1"></use><g><use xlink:href="#aHcFHLFvy" opacity="1" fillOpacity="0" stroke="#e9e9e9" stroke-width="1" stroke-opacity="0"></use></g></g><g><use xlink:href="#cxi6Jo8Wz" opacity="1" fill="#e9e9e9" fillOpacity="0"></use><g><use xlink:href="#cxi6Jo8Wz" opacity="1" fillOpacity="0" stroke="#e9e9e9" stroke-width="1" stroke-opacity="0"></use></g></g></g></g></svg>